<?xml version="1.0" encoding="UTF-8"?>
<svg
  clip-rule="evenodd"
  fill-rule="evenodd"
  stroke-linejoin="round"
  stroke-miterlimit="2"
  version="1.1"
  viewBox="0 0 266 69"
  xml:space="preserve"
  xmlns="http://www.w3.org/2000/svg"
>
  <path
    d="m73.79 15.23c-6.47 0-12.43 3.64-18.19 10-5.66-6.46-11.72-10-18.49-10-11.21 0-19.39 8-19.39 18.77s8.18 18.67 19.39 18.67c6.89 0 12.23-3.23 18.19-9.67 5.76 6.46 11.62 9.69 18.49 9.69 11.21-0.02 19.39-7.89 19.39-18.69s-8.18-18.77-19.39-18.77zm-36.6 26.14c-4.75 0-7.58-3.13-7.58-7.27s2.83-7.36 7.58-7.36c4 0 7.27 3.22 10.81 7.56-3.34 4.04-6.87 7.07-10.81 7.07zm36.26 0c-3.94 0-7.27-3.13-10.81-7.27 3.64-4.34 6.77-7.36 10.81-7.36 4.75 0 7.55 3.26 7.55 7.36s-2.8 7.27-7.55 7.27z"
    fill="#fff"
    fill-rule="nonzero"
  />
  <path
    d="m63.74 50 7.54-9c-3-0.9-5.77-3.6-8.64-6.95l-7.34 8.95c2.403 2.788 5.256 5.154 8.44 7z"
    fill="#fff"
    fill-rule="nonzero"
  />

  <g>
    <g fill="#fff" fill-rule="nonzero">
      <path
        d="m116.7 40.39c0.031-0.916-0.36-1.798-1.06-2.39-1.121-0.807-2.388-1.391-3.73-1.72-2.509-0.62-4.882-1.698-7-3.18-1.56-1.178-2.449-3.047-2.38-5-0.022-2.085 1.005-4.048 2.73-5.22 2.047-1.422 4.51-2.126 7-2 2.532-0.113 5.021 0.697 7 2.28 1.714 1.349 2.681 3.441 2.6 5.62v0.1h-5.06c0.041-1.102-0.401-2.17-1.21-2.92-0.943-0.789-2.153-1.187-3.38-1.11-1.153-0.071-2.296 0.254-3.24 0.92-0.727 0.574-1.148 1.454-1.14 2.38 0.017 0.84 0.448 1.619 1.15 2.08 1.313 0.778 2.726 1.373 4.2 1.77 2.382 0.553 4.61 1.633 6.52 3.16 1.477 1.302 2.293 3.202 2.22 5.17 0.068 2.088-0.927 4.074-2.64 5.27-2.062 1.385-4.52 2.062-7 1.93-2.637 0.059-5.228-0.707-7.41-2.19-2.052-1.344-3.23-3.692-3.08-6.14v-0.11h5.19c-0.111 1.299 0.42 2.574 1.42 3.41 1.177 0.791 2.584 1.171 4 1.08 1.151 0.078 2.296-0.232 3.25-0.88 0.701-0.556 1.092-1.417 1.05-2.31z"
      />
      <path
        d="m137 44.4c-0.547 0.959-1.328 1.764-2.27 2.34-2.614 1.448-5.895 0.98-8-1.14-1.147-1.333-1.72-3.36-1.72-6.08v-11.67h5.2v11.73c-0.079 1.049 0.169 2.098 0.71 3 0.514 0.628 1.3 0.971 2.11 0.92 0.737 0.016 1.468-0.12 2.15-0.4 0.584-0.264 1.088-0.678 1.46-1.2v-14.05h5.22v19.33h-4.45l-0.41-2.78z"
      />
      <path
        d="m162.9 38.05c0.12 2.458-0.584 4.887-2 6.9-1.301 1.73-3.378 2.708-5.54 2.61-0.93 0.015-1.852-0.176-2.7-0.56-0.787-0.39-1.472-0.958-2-1.66v9.28h-5.2v-26.77h4.7l0.31 2.28c0.528-0.799 1.233-1.466 2.06-1.95 0.863-0.473 1.836-0.711 2.82-0.69 2.215-0.087 4.324 0.977 5.57 2.81 1.423 2.19 2.123 4.772 2 7.38l-0.02 0.37zm-5.22-0.4c0.06-1.532-0.253-3.055-0.91-4.44-0.512-1.066-1.608-1.734-2.79-1.7-0.697-0.02-1.388 0.146-2 0.48-0.557 0.332-1.013 0.809-1.32 1.38v8.49c0.312 0.534 0.77 0.968 1.32 1.25 0.623 0.301 1.309 0.448 2 0.43 1.132 0.07 2.211-0.508 2.78-1.49 0.646-1.231 0.954-2.611 0.89-4l0.03-0.4z"
      />
      <path
        d="m174.2 47.56c-2.511 0.114-4.952-0.864-6.69-2.68-1.692-1.854-2.59-4.301-2.5-6.81v-0.71c-0.102-2.576 0.741-5.102 2.37-7.1 3.306-3.503 8.9-3.688 12.43-0.41 1.518 1.767 2.299 4.053 2.18 6.38v2.84h-11.57v0.11c0.05 1.16 0.503 2.267 1.28 3.13 0.8 0.836 1.924 1.285 3.08 1.23 0.972 0.022 1.942-0.096 2.88-0.35 0.869-0.28 1.707-0.648 2.5-1.1l1.41 3.23c-0.924 0.717-1.971 1.259-3.09 1.6-1.382 0.446-2.828 0.662-4.28 0.64zm-0.47-16c-0.899-0.03-1.757 0.386-2.29 1.11-0.591 0.861-0.937 1.867-1 2.91l0.05 0.09h6.4v-0.46c0.049-0.949-0.226-1.888-0.78-2.66-0.574-0.715-1.465-1.104-2.38-1.04v0.05z"
      />
      <path
        d="m195.3 32.33h-1.92c-0.669-0.027-1.333 0.14-1.91 0.48-0.506 0.331-0.903 0.804-1.14 1.36v13.01h-5.2v-19.33h4.87l0.23 2.86c0.386-0.923 0.994-1.738 1.77-2.37 0.71-0.564 1.594-0.864 2.5-0.85 0.241-2e-3 0.482 0.018 0.72 0.06l0.67 0.15-0.59 4.63z"
      />
      <path
        d="m208.3 41.86c-0.012-0.603-0.324-1.162-0.83-1.49-0.946-0.561-1.992-0.935-3.08-1.1-1.857-0.291-3.625-0.999-5.17-2.07-1.153-0.88-1.807-2.27-1.75-3.72-3e-3 -1.666 0.775-3.24 2.1-4.25 1.608-1.227 3.6-1.844 5.62-1.74 2.102-0.11 4.181 0.501 5.89 1.73 1.389 1.014 2.179 2.662 2.1 4.38v0.11h-5c0.026-0.708-0.242-1.396-0.74-1.9-0.601-0.523-1.386-0.786-2.18-0.73-0.719-0.04-1.43 0.18-2 0.62-0.464 0.375-0.73 0.944-0.72 1.54-9e-3 0.586 0.277 1.139 0.76 1.47 0.951 0.533 1.998 0.872 3.08 1 1.908 0.281 3.726 1 5.31 2.1 1.152 0.919 1.796 2.338 1.73 3.81 0.018 1.705-0.82 3.31-2.23 4.27-1.737 1.172-3.807 1.751-5.9 1.65-2.21 0.112-4.385-0.601-6.1-2-1.393-1.032-2.214-2.667-2.21-4.4v-0.1h4.77c-0.05 0.867 0.323 1.706 1 2.25 0.745 0.494 1.627 0.739 2.52 0.7 0.777 0.049 1.548-0.155 2.2-0.58 0.522-0.341 0.836-0.926 0.83-1.55z"
      />
      <path
        d="m224.9 47.56c-2.508 0.114-4.946-0.864-6.68-2.68-1.692-1.854-2.59-4.301-2.5-6.81v-0.71c-0.101-2.574 0.739-5.099 2.36-7.1 3.306-3.503 8.9-3.688 12.43-0.41 1.522 1.765 2.3 4.053 2.17 6.38v2.84h-11.55v0.11c0.047 1.159 0.497 2.266 1.27 3.13 0.802 0.839 1.931 1.288 3.09 1.23 0.969 0.022 1.935-0.096 2.87-0.35 0.873-0.278 1.714-0.646 2.51-1.1l1.41 3.23c-0.925 0.715-1.972 1.257-3.09 1.6-1.385 0.446-2.835 0.662-4.29 0.64zm-0.46-16c-0.9-0.034-1.759 0.383-2.29 1.11-0.591 0.862-0.936 1.867-1 2.91l0.06 0.09h6.4v-0.46c0.049-0.949-0.226-1.888-0.78-2.66-0.576-0.718-1.472-1.108-2.39-1.04v0.05z"
      />
      <path
        d="m242.4 23.11v4.74h3.26v3.66h-3.26v9.85c-0.054 0.577 0.115 1.153 0.47 1.61 0.33 0.329 0.784 0.504 1.25 0.48 0.234 1e-3 0.468-0.015 0.7-0.05 0.233-0.037 0.463-0.087 0.69-0.15l0.45 3.77c-0.502 0.175-1.017 0.312-1.54 0.41-0.536 0.086-1.077 0.13-1.62 0.13-1.531 0.102-3.038-0.434-4.16-1.48-1.082-1.315-1.606-3.003-1.46-4.7v-9.87h-2.82v-3.66h2.82v-4.74h5.22z"
      />
    </g>
  </g>
  <path
    d="m55.6 25.22c-2.387-2.828-5.222-5.247-8.39-7.16l-7.55 9.1c2.87 1 5.41 3.58 8.11 6.87l0.3 0.21 7.53-9.02z"
    fill="#fff"
    fill-rule="nonzero"
  />
</svg>
